<svg xmlns="http://www.w3.org/2000/svg" viewBox="0 0 48 48" width="48" height="48">
  <defs>
    <linearGradient id="cloudIconGradient" x1="0%" y1="0%" x2="100%" y2="100%">
      <stop offset="0%" style="stop-color:#38BDF8" />
      <stop offset="100%" style="stop-color:#0284C7" />
    </linearGradient>
  </defs>
  
  <!-- Background circle -->
  <circle cx="24" cy="24" r="22" fill="#F0F9FF"/>
  
  <!-- Cloud shape -->
  <path d="M36 26c2.2 0 4-1.8 4-4s-1.8-4-4-4c-0.4 0-0.8 0.05-1.2 0.15C33.5 14.5 30 12 26 12c-5 0-9 4-9 9 0 0.3 0 0.6 0.05 0.9C14.5 22.5 12 25 12 28c0 3.3 2.7 6 6 6h18c2.2 0 4-1.8 4-4z" 
        fill="url(#cloudIconGradient)"/>
  
  <!-- Cloud highlight -->
  <ellipse cx="24" cy="24" rx="5" ry="3" fill="#FFFFFF" opacity="0.4"/>
  
  <!-- Upload arrow -->
  <path d="M24 20L24 32M20 24L24 20L28 24" 
        fill="none" 
        stroke="#FFFFFF" 
        stroke-width="2" 
        stroke-linecap="round" 
        stroke-linejoin="round"/>
</svg>
