<svg xmlns="http://www.w3.org/2000/svg" viewBox="0 0 200 50" width="200" height="50">
  <defs>
    <!-- Primary blue gradient -->
    <linearGradient id="logoGradient" x1="0%" y1="0%" x2="100%" y2="100%">
      <stop offset="0%" style="stop-color:#38BDF8" />
      <stop offset="100%" style="stop-color:#0284C7" />
    </linearGradient>
  </defs>
  
  <!-- Cloud icon -->
  <g transform="translate(0, 8)">
    <!-- Main cloud shape -->
    <path d="M35 28c3.3 0 6-2.7 6-6s-2.7-6-6-6c-0.6 0-1.2 0.1-1.8 0.2C31.5 11.5 27.2 8 22 8c-5 0-9 4-9 9 0 0.3 0 0.6 0.1 0.9C9.5 18.5 7 21.3 7 24.6c0 4.3 3.5 7.8 7.8 7.8h20.2c3.3 0 6-2.7 6-6z" 
          fill="url(#logoGradient)"/>
    <!-- Cloud highlight -->
    <ellipse cx="22" cy="22" rx="6" ry="4" fill="#FFFFFF" opacity="0.3"/>
  </g>
  
  <!-- Text: Lusk -->
  <text x="50" y="33" font-family="'Poppins', 'Inter', sans-serif" font-size="24" font-weight="600" fill="#1E293B">
    Lusk
  </text>
  
  <!-- Text: .cloud -->
  <text x="102" y="33" font-family="'Poppins', 'Inter', sans-serif" font-size="24" font-weight="600" fill="#0EA5E9">
    .cloud
  </text>
</svg>
